<svg width="90" height="90" viewBox="0 0 90 90" fill="none" xmlns="http://www.w3.org/2000/svg">
<path d="M44.9218 38.4119C50.9946 38.4119 55.9176 33.6859 55.9176 27.856C55.9176 22.0261 50.9946 17.3 44.9218 17.3C38.849 17.3 33.926 22.0261 33.926 27.856C33.926 33.6859 38.849 38.4119 44.9218 38.4119Z" stroke="white" stroke-width="5.41817"/>
<path d="M67.3464 59.0353C67.3533 58.6181 67.3533 58.1942 67.3533 57.7647C67.3533 51.4489 57.5074 46.3291 45.3617 46.3291C33.2161 46.3291 23.3701 51.4489 23.3701 57.7647C23.3701 64.0805 23.3701 69.2003 45.3617 69.2003C51.4946 69.2003 55.9171 68.8021 59.1065 68.0908" stroke="white" stroke-width="5.41817" stroke-linecap="round"/>
<circle cx="45.3279" cy="44.5809" r="42.364" stroke="white" stroke-width="4.43382"/>
</svg>
